<svg xmlns="http://www.w3.org/2000/svg" width="150" height="38" viewBox="0 0 150 37.5" class="logo"><style>.a{fill:#FC0;}</style><path d="M19 15.7l-2.9 2.9c-1.2-1.2-2.7-1.8-4.4-1.8 -1.7 0-3.2 0.6-4.4 1.8 -1.2 1.2-1.8 2.7-1.8 4.4 0 1.7 0.6 3.2 1.8 4.4 1.2 1.2 2.7 1.8 4.4 1.8 1.7 0 3.2-0.6 4.4-1.8l2.9 2.9c-2 2-4.5 3-7.3 3 -2.9 0-5.3-1-7.3-3 -2-2-3-4.5-3-7.3 0-2.9 1-5.3 3-7.3 2-2 4.5-3 7.3-3C14.5 12.7 17 13.7 19 15.7z" class="a"/><path d="M33.5 33.4c-2.9 0-5.3-1-7.3-3 -2-2-3-4.5-3-7.3 0-2.9 1-5.3 3-7.3 2-2 4.5-3 7.3-3 2.3 0 4.3 0.7 6.2 2.1v-2.1h4.1v20.7h-2.1l-2.1-2.1C37.8 32.7 35.8 33.4 33.5 33.4zM33.5 29.3c1.7 0 3.2-0.6 4.4-1.8 1.2-1.2 1.8-2.7 1.8-4.4 0-1.7-0.6-3.2-1.8-4.4 -1.2-1.2-2.7-1.8-4.4-1.8 -1.7 0-3.2 0.6-4.4 1.8 -1.2 1.2-1.8 2.7-1.8 4.4 0 1.7 0.6 3.2 1.8 4.4C30.3 28.6 31.8 29.3 33.5 29.3z" class="a"/><path d="M47.9 33.4V11.2c0-2.4 0.9-4.5 2.6-6.2 1.7-1.7 3.8-2.6 6.2-2.6v4.1c-1.3 0-2.4 0.5-3.3 1.4 -0.9 0.9-1.4 2-1.4 3.3v1.5h4.1v4.1h-4.1v16.5H47.9z" class="a"/><path d="M63.7 25.1c0.3 0.9 0.8 1.7 1.5 2.3 1.2 1.2 2.7 1.8 4.4 1.8 1.7 0 3.2-0.6 4.4-1.8l2.9 2.9c-2 2-4.5 3-7.3 3 -2.9 0-5.3-1-7.3-3 -2-2-3-4.5-3-7.3 0-2.9 1-5.3 3-7.3 2-2 4.5-3 7.3-3 2.9 0 5.3 1 7.3 3 2.6 2.6 3.6 5.8 2.9 9.4H63.7zM75.4 21c-0.3-0.9-0.8-1.6-1.5-2.3 -1.2-1.2-2.7-1.8-4.4-1.8 -1.7 0-3.2 0.6-4.4 1.8 -0.7 0.7-1.2 1.4-1.5 2.3H75.4zM71.9 5.1l-6.7 5 1 1.8 7.7-3.3L71.9 5.1z" class="a"/><path d="M97.5 19.9v4.1H84.1v-4.1H97.5z" class="a"/><path d="M112 33.4c-2.9 0-5.3-1-7.3-3 -2-2-3-4.5-3-7.3 0-2.9 1-5.3 3-7.3 2-2 4.5-3 7.3-3 2.3 0 4.3 0.7 6.2 2.1V2.4h4.1v31h-2.1l-2.1-2.1C116.4 32.7 114.3 33.4 112 33.4zM112 29.3c1.7 0 3.2-0.6 4.4-1.8 1.2-1.2 1.8-2.7 1.8-4.4 0-1.7-0.6-3.2-1.8-4.4 -1.2-1.2-2.7-1.8-4.4-1.8s-3.2 0.6-4.4 1.8c-1.2 1.2-1.8 2.7-1.8 4.4 0 1.7 0.6 3.2 1.8 4.4C108.8 28.6 110.3 29.3 112 29.3z" class="a"/><path d="M136.8 12.7c2.9 0 5.3 1 7.3 3 2 2 3 4.5 3 7.3 0 2.9-1 5.3-3 7.3 -2 2-4.5 3-7.3 3s-5.3-1-7.3-3c-2-2-3-4.5-3-7.3 0-2.9 1-5.3 3-7.3C131.5 13.7 134 12.7 136.8 12.7zM136.8 29.3c1.7 0 3.2-0.6 4.4-1.8 1.2-1.2 1.8-2.7 1.8-4.4 0-1.7-0.6-3.2-1.8-4.4 -1.2-1.2-2.7-1.8-4.4-1.8s-3.2 0.6-4.4 1.8c-1.2 1.2-1.8 2.7-1.8 4.4 0 1.7 0.6 3.2 1.8 4.4C133.6 28.6 135.1 29.3 136.8 29.3z" class="a"/><path d="M128.7 22.4c0-4.9 3.7-8.8 8.2-8.8 4.5 0 8.2 4 8.2 8.8 0 4.9-3.7 8.8-8.2 8.8C132.4 31.2 128.7 27.3 128.7 22.4z" class="a"/><path d="M102.9 22.6c0-4.9 4-8.8 9-8.8 5 0 9 3.9 9 8.8s-4 8.8-9 8.8C107 31.4 102.9 27.5 102.9 22.6z" class="a"/></svg>
